<svg width="34" height="34" viewBox="0 0 34 34" fill="none" xmlns="http://www.w3.org/2000/svg">
<path fill-rule="evenodd" clip-rule="evenodd" d="M17 0C26.3891 0 34 7.6109 34 17C34 26.3891 26.3891 34 17 34C7.6109 34 0 26.3891 0 17C0 7.6109 7.6109 0 17 0ZM17.85 18.7H7.31C6.85913 18.7 6.42673 18.8791 6.10792 19.1979C5.78911 19.5167 5.61 19.9491 5.61 20.4C5.61 20.8509 5.78911 21.2833 6.10792 21.6021C6.42673 21.9209 6.85913 22.1 7.31 22.1H8.1838L7.6959 22.9687C7.58673 23.1636 7.51702 23.3781 7.49075 23.5999C7.46447 23.8218 7.48215 24.0466 7.54277 24.2616C7.60338 24.4766 7.70576 24.6776 7.84404 24.853C7.98232 25.0284 8.15381 25.1749 8.3487 25.2841C8.54359 25.3933 8.75808 25.463 8.97992 25.4893C9.20176 25.5155 9.42659 25.4979 9.6416 25.4372C9.8566 25.3766 10.0576 25.2742 10.233 25.136C10.4084 24.9977 10.5549 24.8262 10.6641 24.6313L12.0802 22.1H17.85C18.3009 22.1 18.7333 21.9209 19.0521 21.6021C19.3709 21.2833 19.55 20.8509 19.55 20.4C19.55 19.9491 19.3709 19.5167 19.0521 19.1979C18.7333 18.8791 18.3009 18.7 17.85 18.7ZM21.0681 13.6204C20.8581 13.2385 20.5094 12.9518 20.094 12.8197C19.6787 12.6875 19.2285 12.7199 18.8363 12.9102C18.4442 13.1005 18.1402 13.4341 17.987 13.8421C17.8338 14.2502 17.8432 14.7015 18.0132 15.1028L18.1016 15.2813L23.3376 24.6313C23.5497 25.0093 23.8981 25.2921 24.3117 25.4218C24.7253 25.5514 25.1728 25.5182 25.5628 25.3289C25.9527 25.1396 26.2556 24.8085 26.4095 24.4033C26.5634 23.998 26.5567 23.5493 26.3908 23.1489L26.3024 22.9687L25.8162 22.1017H26.69C27.1259 22.1051 27.5465 21.941 27.8649 21.6431C28.1832 21.3453 28.375 20.9365 28.4005 20.5013C28.4261 20.0661 28.2834 19.6377 28.0021 19.3047C27.7208 18.9717 27.3222 18.7595 26.8889 18.7119L26.69 18.7H23.9122L21.0681 13.6204ZM16.7841 5.9704C16.5741 5.58849 16.2254 5.30184 15.81 5.16967C15.3947 5.03749 14.9445 5.06989 14.5523 5.26017C14.1602 5.45045 13.8561 5.78408 13.703 6.19213C13.5498 6.60018 13.5592 7.05148 13.7292 7.4528L13.8159 7.6313L15.0518 9.8362L11.9799 15.3204C11.7662 15.6991 11.7056 16.1452 11.8108 16.5672C11.9159 16.9891 12.1788 17.3547 12.5452 17.5887C12.9117 17.8228 13.3539 17.9076 13.7809 17.8256C14.2079 17.7436 14.5873 17.501 14.841 17.1479L14.9481 16.9813L20.1841 7.6313C20.4007 7.25252 20.4634 6.80494 20.3592 6.38123C20.2549 5.95751 19.9917 5.59011 19.6241 5.35507C19.2565 5.12002 18.8125 5.03535 18.3842 5.11856C17.9558 5.20177 17.5759 5.44651 17.323 5.8021L17.2176 5.9687L17 6.358L16.7841 5.9704Z" fill="#196EFB"/>
</svg>
