<svg width="35" height="34" viewBox="0 0 35 34" fill="none" xmlns="http://www.w3.org/2000/svg">
<ellipse cx="17.875" cy="17" rx="17.125" ry="17" fill="#196EFB"/>
<path d="M27.5491 18.1033L24.4348 19.9887L21.6415 17.0196L24.4571 14.0267L27.5491 15.8984C27.7316 16.0088 27.8835 16.169 27.9891 16.3627C28.0947 16.5564 28.1504 16.7766 28.1504 17.0009C28.1504 17.2251 28.0947 17.4453 27.9891 17.639C27.8835 17.8327 27.7316 17.993 27.5491 18.1033ZM11.1144 7.58527C11.0557 7.7385 11.0255 7.90249 11.0254 8.06808V25.9328C11.0254 26.1173 11.0612 26.289 11.1239 26.4428L19.9886 17.0187L11.1144 7.58527ZM20.815 16.1407L23.4041 13.3883L12.7936 6.96561C12.566 6.82607 12.3012 6.77247 12.0418 6.81346L20.815 16.1407ZM20.815 17.8976L12.0736 27.1908C12.3104 27.2214 12.5599 27.1772 12.7936 27.0353L23.3819 20.6262L20.815 17.8976Z" fill="white"/>
</svg>
