<svg width="24" height="24" viewBox="0 0 24 24" fill="none" xmlns="http://www.w3.org/2000/svg">
<g clip-path="url(#clip0_4_2)">
<path fill-rule="evenodd" clip-rule="evenodd" d="M7.94 13.06C7.6591 12.7788 7.50132 12.3975 7.50132 12C7.50132 11.6025 7.6591 11.2213 7.94 10.94L13.596 5.282C13.8774 5.00074 14.259 4.84278 14.6569 4.84287C14.8539 4.84292 15.0489 4.88177 15.2309 4.9572C15.4129 5.03263 15.5782 5.14317 15.7175 5.2825C15.8568 5.42183 15.9672 5.58723 16.0426 5.76925C16.1179 5.95127 16.1567 6.14635 16.1566 6.34335C16.1566 6.54035 16.1177 6.73541 16.0423 6.9174C15.9669 7.09939 15.8563 7.26473 15.717 7.404L11.122 12L15.718 16.596C15.8613 16.7343 15.9757 16.8998 16.0544 17.0827C16.1331 17.2657 16.1745 17.4625 16.1764 17.6617C16.1782 17.8608 16.1403 18.0584 16.065 18.2428C15.9897 18.4271 15.8784 18.5947 15.7376 18.7356C15.5968 18.8765 15.4294 18.9879 15.2451 19.0634C15.0608 19.139 14.8633 19.177 14.6641 19.1754C14.4649 19.1737 14.2681 19.1324 14.0851 19.0539C13.902 18.9754 13.7364 18.8612 13.598 18.718L7.938 13.06H7.94Z" fill="white"/>
</g>
<defs>
<clipPath id="clip0_4_2">
<rect width="24" height="24" fill="white"/>
</clipPath>
</defs>
</svg>
